HIERARCHY
ROOT Hips
{
	OFFSET 0.000000 0.000000 0.000000
	CHANNELS 6 Xposition Yposition Zposition Zrotation Yrotation Xrotation 
	JOINT LHipJoint
	{
		OFFSET 0.000000 0.000000 0.000000
		CHANNELS 3 Zrotation Yrotation Xrotation
		JOINT LeftUpLeg
		{
			OFFSET 1.363060 -1.794630 0.839290
			CHANNELS 3 Zrotation Yrotation Xrotation
			JOINT LeftLeg
			{
				OFFSET 2.448110 -6.726130 0.000000
				CHANNELS 3 Zrotation Yrotation Xrotation
				JOINT LeftFoot
				{
					OFFSET 2.562200 -7.039590 0.000000
					CHANNELS 3 Zrotation Yrotation Xrotation
					JOINT LeftToeBase
					{
						OFFSET 0.157640 -0.433110 2.322550
						CHANNELS 3 Zrotation Yrotation Xrotation
						End Site
						{
							OFFSET 0.000000 0.000000 0.000000
						}
					}
				}
			}
		}
	}
	JOINT RHipJoint
	{
		OFFSET 0.000000 0.000000 0.000000
		CHANNELS 3 Zrotation Yrotation Xrotation
		JOINT RightUpLeg
		{
			OFFSET -1.305520 -1.794630 0.839290
			CHANNELS 3 Zrotation Yrotation Xrotation
			JOINT RightLeg
			{
				OFFSET -2.542530 -6.985550 0.000000
				CHANNELS 3 Zrotation Yrotation Xrotation
				JOINT RightFoot
				{
					OFFSET -2.568260 -7.056230 0.000000
					CHANNELS 3 Zrotation Yrotation Xrotation
					JOINT RightToeBase
					{
						OFFSET -0.164730 -0.452590 2.363150
						CHANNELS 3 Zrotation Yrotation Xrotation
						End Site
						{
							OFFSET 0.000000 0.000000 0.000000
						}
					}
				}
			}
		}
	}
	JOINT LowerBack
	{
		OFFSET 0.000000 0.000000 0.000000
		CHANNELS 3 Zrotation Yrotation Xrotation
		JOINT Spine
		{
			OFFSET 0.028270 2.035590 -0.193380
			CHANNELS 3 Zrotation Yrotation Xrotation
			JOINT Spine1
			{
				OFFSET 0.056720 2.048850 -0.042750
				CHANNELS 3 Zrotation Yrotation Xrotation
				JOINT Neck
				{
					OFFSET 0.000000 0.000000 0.000000
					CHANNELS 3 Zrotation Yrotation Xrotation
					JOINT Neck1
					{
						OFFSET -0.054170 1.746240 0.172020
						CHANNELS 3 Zrotation Yrotation Xrotation
						JOINT Head
						{
							OFFSET 0.104070 1.761360 -0.123970
							CHANNELS 3 Zrotation Yrotation Xrotation
							End Site
							{
								OFFSET 0.000000 0.000000 0.000000
							}
						}
					}
				}
				JOINT LeftShoulder
				{
					OFFSET 0.000000 0.000000 0.000000
					CHANNELS 3 Zrotation Yrotation Xrotation
					JOINT LeftArm
					{
						OFFSET 3.362410 1.200890 -0.311210
						CHANNELS 3 Zrotation Yrotation Xrotation
						JOINT LeftForeArm
						{
							OFFSET 4.983000 -0.000000 -0.000000
							CHANNELS 3 Zrotation Yrotation Xrotation
							JOINT LeftHand
							{
								OFFSET 3.483560 -0.000000 -0.000000
								CHANNELS 3 Zrotation Yrotation Xrotation
								JOINT LeftFingerBase
								{
									OFFSET 0.000000 0.000000 0.000000
									CHANNELS 3 Zrotation Yrotation Xrotation
									JOINT LeftHandIndex1
									{
										OFFSET 0.715260 -0.000000 -0.000000
										CHANNELS 3 Zrotation Yrotation Xrotation
										End Site
										{
											OFFSET 0.000000 0.000000 0.000000
										}
									}
								}
								JOINT LThumb
								{
									OFFSET 0.000000 0.000000 0.000000
									CHANNELS 3 Zrotation Yrotation Xrotation
									End Site
									{
										OFFSET 0.000000 0.000000 0.000000
									}
								}
							}
						}
					}
				}
				JOINT RightShoulder
				{
					OFFSET 0.000000 0.000000 0.000000
					CHANNELS 3 Zrotation Yrotation Xrotation
					JOINT RightArm
					{
						OFFSET -3.136600 1.374050 -0.404650
						CHANNELS 3 Zrotation Yrotation Xrotation
						JOINT RightForeArm
						{
							OFFSET -5.241900 -0.000000 -0.000000
							CHANNELS 3 Zrotation Yrotation Xrotation
							JOINT RightHand
							{
								OFFSET -3.444170 -0.000000 -0.000000
								CHANNELS 3 Zrotation Yrotation Xrotation
								JOINT RightFingerBase
								{
									OFFSET 0.000000 0.000000 0.000000
									CHANNELS 3 Zrotation Yrotation Xrotation
									JOINT RightHandIndex1
									{
										OFFSET -0.622530 -0.000000 -0.000000
										CHANNELS 3 Zrotation Yrotation Xrotation
										End Site
										{
											OFFSET 0.000000 0.000000 0.000000
										}
									}
								}
								JOINT RThumb
								{
									OFFSET 0.000000 0.000000 0.000000
									CHANNELS 3 Zrotation Yrotation Xrotation
									End Site
									{
										OFFSET 0.000000 0.000000 0.000000
									}
								}
							}
						}
					}
				}
			}
		}
	}
}
MOTION
Frames: 10
Frame Time: 0.008333
-12.885337 11.237546 -24.482926 -79.480693 -72.467828 77.926667 1.353226 0.003672 -0.338935 0.109407 32.147800 -46.775067 32.510160 16.336237 125.937863 2.078480 -29.257299 3.159260 0.709400 -5.383100 -15.004500 -1.262722 4.704040 -5.750286 18.973274 -8.480314 -77.180472 -23.918290 -19.116748 100.884633 -1.714530 7.594365 -2.416507 -0.408900 4.105200 -11.372800 8.182922 -7.789074 38.721664 3.213506 -6.558892 -0.569324 4.215470 -4.511834 -5.464655 -10.330344 -14.219720 -9.536605 15.058515 -17.658614 5.923342 4.967400 -7.970700 9.565900 -12.262664 -7.051144 -0.874213 -51.807560 -10.835140 12.655626 14.480096 -24.532152 -7.954721 -3.406604 0.630038 30.617842 22.841012 6.647862 3.779500 -7.125000 0.000000 0.000000 -0.635300 38.598000 0.100200 8.453578 8.255632 1.210566 15.569128 13.775466 13.373915 -56.323629 48.188123 -45.029476 2.280081 2.786648 2.586138 -32.576409 -7.730463 7.447800 7.125000 0.000000 0.000000 -7.037100 -42.994300 -0.350200 
-12.906142 11.469048 -24.595864 -80.926491 -73.160490 79.465333 0.893156 -0.420982 -0.397230 -1.074334 30.221162 -46.510935 31.859331 16.506918 124.229299 2.496412 -27.372796 2.323442 0.757700 -5.559200 -15.510700 -1.002753 4.821832 -5.677798 19.410460 -8.331589 -76.228443 -23.408590 -19.239664 99.278433 -1.705250 7.446192 -2.185720 -0.335100 3.720000 -10.290200 7.884891 -7.609710 38.504061 3.167858 -6.457150 -0.594719 4.269460 -4.449956 -5.510368 -10.288374 -14.327797 -9.450896 15.176916 -17.816095 5.718588 4.978500 -8.045400 9.489500 -12.146612 -6.948674 -0.930387 -52.301078 -10.824791 13.592429 15.081127 -25.098763 -8.272715 -3.395393 0.521509 29.706499 22.937157 6.747870 3.855400 -7.125000 0.000000 0.000000 -0.600200 38.756000 0.092300 8.440766 8.129364 1.218090 17.085496 12.896833 13.539836 -56.811237 48.488943 -45.662334 2.271720 2.808319 2.425092 -32.547423 -8.044151 7.655300 7.125000 0.000000 0.000000 -7.014800 -43.373900 -0.283000 
-12.923019 11.705751 -24.703707 -82.744657 -73.851294 81.421094 0.426797 -0.829287 -0.431049 -2.205342 28.392388 -46.161888 31.202780 16.719586 122.438014 2.849190 -25.469645 1.544381 0.795300 -5.692400 -15.894500 -0.739089 4.939650 -5.614813 19.858336 -8.208136 -75.264484 -22.846724 -19.359853 97.524808 -1.700866 7.348968 -1.841328 -0.258700 3.272200 -9.037600 7.554448 -7.412793 38.257455 3.113716 -6.346616 -0.618474 4.309260 -4.380887 -5.552667 -10.248120 -14.409418 -9.364600 15.278874 -17.936103 5.522811 4.996400 -8.104300 9.414400 -12.034361 -6.853675 -0.975723 -52.792377 -10.835855 14.342081 15.629842 -25.596045 -8.564216 -3.390777 0.419550 28.800440 23.031538 6.855435 3.936100 -7.125000 0.000000 0.000000 -0.557700 38.921600 0.083500 8.411500 8.011780 1.207063 18.714429 12.047877 13.736326 -57.270566 48.790715 -46.209776 2.266113 2.806305 2.360095 -32.543101 -8.361809 7.856400 7.125000 0.000000 0.000000 -7.012200 -43.734500 -0.220100 
-12.936393 11.947548 -24.805712 -85.024737 -74.520272 83.895699 -0.039701 -1.215192 -0.441469 -3.299127 26.672604 -45.749471 30.538472 16.966841 120.555588 3.136067 -23.533556 0.777423 0.825900 -5.798300 -16.200200 -0.473958 5.058551 -5.562357 20.324228 -8.098741 -74.304375 -22.232662 -19.472745 95.631349 -1.702380 7.310541 -1.364952 -0.184700 2.767800 -7.632900 7.215814 -7.198783 37.965380 3.052953 -6.220913 -0.641907 4.326415 -4.300938 -5.590871 -10.205203 -14.462912 -9.283023 15.355208 -18.013867 5.326871 5.015500 -8.145700 9.335000 -11.923233 -6.764718 -1.014928 -53.284697 -10.828005 14.972587 16.141398 -26.051609 -8.839269 -3.389667 0.322432 27.943909 23.125284 6.975373 4.024700 -7.125000 0.000000 0.000000 -0.511200 39.102700 0.074300 8.365916 7.901493 1.178527 20.443790 11.245425 13.962309 -57.670116 49.076880 -46.632434 2.265781 2.778329 2.405167 -32.569984 -8.681535 8.051600 7.125000 0.000000 0.000000 -7.037200 -44.073100 -0.161800 
-12.947007 12.194759 -24.901986 -87.815539 -75.136922 86.937363 -0.494909 -1.567424 -0.429313 -4.339795 25.097594 -45.285804 29.864916 17.243047 118.570986 3.353032 -21.587560 0.004719 0.852000 -5.886700 -16.456100 -0.209960 5.179490 -5.521517 20.816401 -8.003938 -73.348257 -21.566417 -19.573070 93.605953 -1.712245 7.348096 -0.727049 -0.115500 2.191000 -6.033800 6.889371 -6.977139 37.624383 2.988476 -6.085709 -0.665664 4.318181 -4.213701 -5.623129 -10.144627 -14.481657 -9.214640 15.393822 -18.040921 5.129262 5.026700 -8.164900 9.246900 -11.811241 -6.681468 -1.050595 -53.785810 -10.776025 15.477946 16.615166 -26.471405 -9.099908 -3.387378 0.235392 27.209111 23.221374 7.095113 4.113500 -7.125000 0.000000 0.000000 -0.460400 39.282000 0.064900 8.304435 7.796829 1.132196 22.276687 10.506587 14.239493 -58.006381 49.342445 -46.914519 2.274826 2.724023 2.518852 -32.672659 -9.008208 8.258900 7.125000 0.000000 0.000000 -7.138700 -44.400500 -0.106200 
-12.954862 12.447384 -24.992209 -91.139854 -75.688487 90.567862 -0.939440 -1.888298 -0.398034 -5.347467 23.647134 -44.782284 29.173179 17.539059 116.475923 3.496245 -19.614350 -0.769046 0.879000 -5.976800 -16.717200 0.052364 5.302451 -5.491108 21.316178 -7.922207 -72.400270 -20.850138 -19.655262 91.461154 -1.734615 7.482942 0.100639 -0.055900 1.525900 -4.197000 6.577130 -6.754944 37.240057 2.921107 -5.948922 -0.692029 4.284414 -4.122139 -5.655282 -10.059146 -14.460847 -9.162632 15.389970 -18.010651 4.928983 5.026200 -8.158600 9.147800 -11.698608 -6.603303 -1.086222 -54.283833 -10.649692 15.905019 17.060449 -26.872409 -9.352092 -3.377251 0.151210 26.557516 23.282819 7.193258 4.184900 -7.125000 0.000000 0.000000 -0.443800 39.434500 0.060900 8.227978 7.698015 1.069742 24.192751 9.844854 14.574847 -58.263231 49.577681 -47.039535 2.291542 2.647117 2.663852 -32.826059 -9.336519 8.470100 7.125000 0.000000 0.000000 -7.294100 -44.710000 -0.052500 
-12.960488 12.705103 -25.077443 -94.943352 -76.131723 94.712389 -1.368412 -2.173838 -0.351261 -6.285674 22.319671 -44.227420 28.461788 17.846905 114.272489 3.562652 -17.619282 -1.551837 0.907400 -6.070100 -16.987900 0.313168 5.427926 -5.469832 21.851840 -7.879162 -71.448355 -20.084647 -19.713160 89.207062 -1.769492 7.706669 1.122200 -0.015700 0.809200 -2.224000 6.304476 -6.546299 36.832343 2.854932 -5.818414 -0.719134 4.226295 -4.032574 -5.685236 -9.952470 -14.407312 -9.131221 15.352758 -17.932680 4.725066 5.015900 -8.130700 9.040400 -11.586185 -6.531787 -1.120391 -54.789515 -10.463678 16.205250 17.462176 -27.237819 -9.586690 -3.361288 0.077443 26.049805 23.325381 7.275343 4.243000 -7.125000 0.000000 0.000000 -0.444900 39.564100 0.059600 8.137785 7.605763 0.993728 26.177109 9.270316 14.967460 -58.437441 49.780175 -47.008763 2.313628 2.552536 2.773731 -33.010059 -9.649826 8.670300 7.125000 0.000000 0.000000 -7.486200 -44.982000 -0.003400 
-12.964097 12.967599 -25.157689 -99.171260 -76.467081 99.314935 -1.785367 -2.429200 -0.291886 -7.179945 21.104931 -43.635290 27.722132 18.157910 111.957572 3.546581 -15.588415 -2.324380 0.933700 -6.155100 -17.235200 0.571448 5.554798 -5.456502 22.399191 -7.876369 -70.497966 -19.273357 -19.741457 86.858422 -1.817623 8.016471 2.349242 -0.000100 0.055300 -0.152100 6.058172 -6.354291 36.406634 2.789376 -5.702990 -0.747720 4.147766 -3.948929 -5.713495 -9.821749 -14.319076 -9.122098 15.286353 -17.806123 4.517227 4.997100 -8.080000 8.925400 -11.475170 -6.465116 -1.155459 -55.276776 -10.194657 16.464167 17.838450 -27.592298 -9.814023 -3.338665 0.001720 25.577454 23.324517 7.334805 4.282000 -7.125000 0.000000 0.000000 -0.488700 39.667100 0.064200 8.034379 7.518827 0.906055 28.216648 8.788320 15.418731 -58.539070 49.952625 -46.840767 2.339122 2.449529 2.806724 -33.202756 -9.987952 8.884700 7.125000 0.000000 0.000000 -7.694800 -45.269400 0.051500 
-12.966007 13.234023 -25.233900 -103.701396 -76.680441 104.244745 -2.191167 -2.658043 -0.223394 -8.029540 19.992072 -43.012209 26.950107 18.463334 109.536455 3.441806 -13.505323 -3.081506 0.958700 -6.234700 -17.467000 0.825510 5.681225 -5.449076 22.965911 -7.938674 -69.559541 -18.419848 -19.735090 84.429888 -1.879671 8.408143 3.788459 -0.010400 -0.659300 1.811900 5.843881 -6.186327 35.971107 2.725868 -5.609459 -0.778041 4.051017 -3.875054 -5.740749 -9.668353 -14.199585 -9.136700 15.195793 -17.636914 4.311526 4.970500 -8.008700 8.807800 -11.366954 -6.402553 -1.192567 -55.734047 -9.837255 16.724600 18.194193 -27.943509 -10.036512 -3.315686 -0.079596 25.116395 23.295589 7.399137 4.320700 -7.125000 0.000000 0.000000 -0.559800 39.780400 0.072000 7.920088 7.436819 0.809483 30.288411 8.401110 15.933516 -58.555263 50.090529 -46.530877 2.367891 2.342023 2.742981 -33.398196 -10.352644 9.114900 7.125000 0.000000 0.000000 -7.914900 -45.577200 0.113500 
-12.966326 13.503737 -25.306610 -108.418838 -76.758525 109.389646 -2.586268 -2.864334 -0.149856 -8.827237 18.981245 -42.372057 26.143922 18.754297 107.019364 3.241590 -11.366700 -3.794620 0.975900 -6.288900 -17.625000 1.074807 5.806192 -5.445580 23.560499 -8.066504 -68.638047 -17.525812 -19.690380 81.931572 -1.954259 8.863067 5.438803 -0.040500 -1.299000 3.572000 5.663514 -6.040733 35.527469 2.667310 -5.533800 -0.808929 3.946681 -3.811144 -5.762414 -9.505778 -14.055736 -9.180261 15.088046 -17.433076 4.112841 4.939600 -7.919800 8.694400 -11.260158 -6.343626 -1.231873 -56.167741 -9.400427 17.015466 18.539307 -28.299977 -10.258596 -3.295778 -0.169884 24.630626 23.248193 7.486132 4.370900 -7.125000 0.000000 0.000000 -0.649500 39.927100 0.081200 7.796874 7.358390 0.706402 32.379075 8.109269 16.484332 -58.469296 50.189417 -46.077671 2.394881 2.227950 2.614785 -33.532058 -10.680532 9.294100 7.125000 0.000000 0.000000 -8.076800 -45.819000 0.164300 
